<svg width="20" height="20" viewBox="0 0 20 20" fill="none" xmlns="http://www.w3.org/2000/svg">
<path opacity="0.4" d="M15.8333 3.33398H4.16667C3.24619 3.33398 2.5 4.08018 2.5 5.00065V8.33398H17.5V5.00065C17.5 4.08018 16.7538 3.33398 15.8333 3.33398Z" fill="#434759"/>
<path d="M13.75 1.66602V4.99935M6.25 1.66602V4.99935" stroke="#434759" stroke-width="1.5" stroke-linecap="round" stroke-linejoin="round"/>
<path d="M15.8333 3.33398H4.16667C3.24619 3.33398 2.5 4.08018 2.5 5.00065V16.6673C2.5 17.5878 3.24619 18.334 4.16667 18.334H15.8333C16.7538 18.334 17.5 17.5878 17.5 16.6673V5.00065C17.5 4.08018 16.7538 3.33398 15.8333 3.33398Z" stroke="#434759" stroke-width="1.5" stroke-linecap="round" stroke-linejoin="round"/>
<path d="M2.5 8.33398H17.5" stroke="#434759" stroke-width="1.5" stroke-linecap="round" stroke-linejoin="round"/>
<path d="M12.916 12.9167V14.5833M14.166 13.75C14.166 14.4403 13.6063 15 12.916 15C12.2257 15 11.666 14.4403 11.666 13.75C11.666 13.0597 12.2257 12.5 12.916 12.5C13.6063 12.5 14.166 13.0597 14.166 13.75Z" stroke="#434759" stroke-width="1.5" stroke-linecap="round" stroke-linejoin="round"/>
</svg>
