<svg width="594" height="541" viewBox="0 0 594 541" fill="none" xmlns="http://www.w3.org/2000/svg">
<g opacity="0.5" clip-path="url(#clip0_18355_49523)">
<g clip-path="url(#clip1_18355_49523)">
<path d="M32.8418 0L32.8418 600.423" stroke="#18E29F" stroke-width="0.275562"/>
<path d="M76.9316 0V600.423" stroke="#18E29F" stroke-width="0.275562"/>
<path d="M121.021 0V600.423" stroke="#18E29F" stroke-width="0.275562"/>
<path d="M165.111 0V600.423" stroke="#18E29F" stroke-width="0.275562"/>
<path d="M209.201 0V600.423" stroke="#18E29F" stroke-width="0.275562"/>
<path d="M253.291 0V600.423" stroke="#18E29F" stroke-width="0.275562"/>
<path d="M297.381 0V600.423" stroke="#18E29F" stroke-width="0.275562"/>
<path d="M341.471 0V600.423" stroke="#18E29F" stroke-width="0.275562"/>
<path d="M385.561 0V600.423" stroke="#18E29F" stroke-width="0.275562"/>
<path d="M429.65 0V600.423" stroke="#18E29F" stroke-width="0.275562"/>
<path d="M473.74 0V600.423" stroke="#18E29F" stroke-width="0.275562"/>
<path d="M517.83 0V600.423" stroke="#18E29F" stroke-width="0.275562"/>
<path d="M561.92 0V600.423" stroke="#18E29F" stroke-width="0.275562"/>
</g>
<g clip-path="url(#clip2_18355_49523)">
<path d="M-38.1816 35.584C-26.5009 35.584 414.086 35.584 632.919 35.584" stroke="#18E29F" stroke-width="0.275562"/>
<path d="M-38.1816 79.6738C-26.5009 79.6738 414.086 79.6738 632.919 79.6738" stroke="#18E29F" stroke-width="0.275562"/>
<path d="M-38.1816 123.764C-26.5009 123.764 414.086 123.764 632.919 123.764" stroke="#18E29F" stroke-width="0.275562"/>
<path d="M-38.1816 167.854C-26.5009 167.854 414.086 167.854 632.919 167.854" stroke="#18E29F" stroke-width="0.275562"/>
<path d="M-38.1816 211.943C-26.5009 211.943 414.086 211.943 632.919 211.943" stroke="#18E29F" stroke-width="0.275562"/>
<path d="M-38.1816 256.033C-26.5009 256.033 414.086 256.033 632.919 256.033" stroke="#18E29F" stroke-width="0.275562"/>
<path d="M-38.1816 300.123C-26.5009 300.123 414.086 300.123 632.919 300.123" stroke="#18E29F" stroke-width="0.275562"/>
<path d="M-38.1816 344.213C-26.5009 344.213 414.086 344.213 632.919 344.213" stroke="#18E29F" stroke-width="0.275562"/>
<path d="M-38.1816 388.303C-26.5009 388.303 414.086 388.303 632.919 388.303" stroke="#18E29F" stroke-width="0.275562"/>
<path d="M-38.1816 432.393C-26.5009 432.393 414.086 432.393 632.919 432.393" stroke="#18E29F" stroke-width="0.275562"/>
<path d="M-38.1816 476.482C-26.5009 476.482 414.086 476.482 632.919 476.482" stroke="#18E29F" stroke-width="0.275562"/>
<path d="M-38.1816 520.572C-26.5009 520.572 414.086 520.572 632.919 520.572" stroke="#18E29F" stroke-width="0.275562"/>
</g>
</g>
<defs>
<clipPath id="clip0_18355_49523">
<rect width="671.895" height="554.242" fill="white" transform="translate(-38.1816)"/>
</clipPath>
<clipPath id="clip1_18355_49523">
<rect width="617.259" height="600.423" fill="white" transform="translate(-11.248)"/>
</clipPath>
<clipPath id="clip2_18355_49523">
<rect width="671.101" height="617.259" fill="white" transform="translate(-38.1816 -8.50586)"/>
</clipPath>
</defs>
</svg>
